# xmcd CD database file
#
# Track frame offsets:
#	150
#	21185
#	39582
#	60607
#
# Disc length: 1050 seconds
#
# Revision: 2
# Processed by: cddbd v1.5.1PL2 Copyright (c) Steve Scherf et al.
# Submitted via: CDex 1.60beta1
#
DISCID=2c041804
DTITLE=中島美嘉 - CRY NO MORE
DYEAR=2006
DGENRE=JPop
TTITLE0=CRY NO MORE
TTITLE1=BLACK and BLUE
TTITLE2=CRY NO MORE(Instrumental)
TTITLE3=BLACK and BLUE(Instrumental)
EXTD=YEAR: 2006.02.22
EXTT0=
EXTT1=
EXTT2=
EXTT3=
PLAYORDER=
